<mxfile host="app.diagrams.net" modified="2020-09-29T03:35:06.072Z" agent="5.0 (Windows NT 10.0; Win64; x64) AppleWebKit/537.36 (KHTML, like Gecko) Chrome/85.0.4183.121 Safari/537.36" etag="x1gTLQGB7SOEaKrWRAg8" version="13.7.4" type="github" pages="2">
  <diagram name="谷歌支付流程" id="13e1069c-82ec-6db2-03f1-153e76fe0fe0">
    <mxGraphModel dx="867" dy="746" grid="1" gridSize="10" guides="1" tooltips="1" connect="1" arrows="1" fold="1" page="1" pageScale="1" pageWidth="1100" pageHeight="850" background="#ffffff" math="0" shadow="0">
      <root>
        <mxCell id="0" />
        <mxCell id="1" parent="0" />
        <mxCell id="7baba1c4bc27f4b0-2" value="37sdk" style="shape=umlLifeline;perimeter=lifelinePerimeter;whiteSpace=wrap;html=1;container=1;collapsible=0;recursiveResize=0;outlineConnect=0;rounded=1;shadow=0;comic=0;labelBackgroundColor=none;strokeWidth=1;fontFamily=Verdana;fontSize=12;align=center;" parent="1" vertex="1">
          <mxGeometry x="240" y="50" width="100" height="990" as="geometry" />
        </mxCell>
        <mxCell id="7baba1c4bc27f4b0-3" value="37后台" style="shape=umlLifeline;perimeter=lifelinePerimeter;whiteSpace=wrap;html=1;container=1;collapsible=0;recursiveResize=0;outlineConnect=0;rounded=1;shadow=0;comic=0;labelBackgroundColor=none;strokeWidth=1;fontFamily=Verdana;fontSize=12;align=center;" parent="1" vertex="1">
          <mxGeometry x="400" y="50" width="100" height="990" as="geometry" />
        </mxCell>
        <mxCell id="7baba1c4bc27f4b0-4" value="GPsdk" style="shape=umlLifeline;perimeter=lifelinePerimeter;whiteSpace=wrap;html=1;container=1;collapsible=0;recursiveResize=0;outlineConnect=0;rounded=1;shadow=0;comic=0;labelBackgroundColor=none;strokeWidth=1;fontFamily=Verdana;fontSize=12;align=center;" parent="1" vertex="1">
          <mxGeometry x="540" y="50" width="100" height="990" as="geometry" />
        </mxCell>
        <mxCell id="7baba1c4bc27f4b0-5" value="GP后台" style="shape=umlLifeline;perimeter=lifelinePerimeter;whiteSpace=wrap;html=1;container=1;collapsible=0;recursiveResize=0;outlineConnect=0;rounded=1;shadow=0;comic=0;labelBackgroundColor=none;strokeWidth=1;fontFamily=Verdana;fontSize=12;align=center;" parent="1" vertex="1">
          <mxGeometry x="680" y="50" width="100" height="970" as="geometry" />
        </mxCell>
        <mxCell id="7baba1c4bc27f4b0-8" value="用户" style="shape=umlLifeline;perimeter=lifelinePerimeter;whiteSpace=wrap;html=1;container=1;collapsible=0;recursiveResize=0;outlineConnect=0;rounded=1;shadow=0;comic=0;labelBackgroundColor=none;strokeWidth=1;fontFamily=Verdana;fontSize=12;align=center;" parent="1" vertex="1">
          <mxGeometry x="100" y="50" width="100" height="980" as="geometry" />
        </mxCell>
        <mxCell id="7baba1c4bc27f4b0-9" value="" style="html=1;points=[];perimeter=orthogonalPerimeter;rounded=0;shadow=0;comic=0;labelBackgroundColor=none;strokeWidth=1;fontFamily=Verdana;fontSize=12;align=center;" parent="7baba1c4bc27f4b0-8" vertex="1">
          <mxGeometry x="45" y="90" width="10" height="890" as="geometry" />
        </mxCell>
        <mxCell id="7baba1c4bc27f4b0-17" value="" style="html=1;verticalAlign=bottom;endArrow=block;labelBackgroundColor=none;fontFamily=Verdana;fontSize=12;edgeStyle=elbowEdgeStyle;elbow=vertical;" parent="1" edge="1">
          <mxGeometry x="-0.5088" relative="1" as="geometry">
            <mxPoint x="289.66666666666663" y="199.9999999999999" as="sourcePoint" />
            <Array as="points">
              <mxPoint x="310" y="200" />
            </Array>
            <mxPoint x="590" y="199.9999999999999" as="targetPoint" />
            <mxPoint as="offset" />
          </mxGeometry>
        </mxCell>
        <mxCell id="ijYvf7jys5PV-CXiAklp-15" value="&lt;span style=&quot;font-family: &amp;#34;verdana&amp;#34; ; font-size: 12px ; background-color: rgb(248 , 249 , 250)&quot;&gt;查询订单&lt;/span&gt;" style="edgeLabel;html=1;align=center;verticalAlign=middle;resizable=0;points=[];" parent="7baba1c4bc27f4b0-17" vertex="1" connectable="0">
          <mxGeometry x="-0.4885" y="-1" relative="1" as="geometry">
            <mxPoint x="80.83" y="-1" as="offset" />
          </mxGeometry>
        </mxCell>
        <mxCell id="7baba1c4bc27f4b0-11" value="" style="html=1;verticalAlign=bottom;endArrow=block;entryX=0.5;entryY=0.172;labelBackgroundColor=none;fontFamily=Verdana;fontSize=12;edgeStyle=elbowEdgeStyle;elbow=vertical;entryDx=0;entryDy=0;entryPerimeter=0;" parent="1" edge="1">
          <mxGeometry relative="1" as="geometry">
            <mxPoint x="160" y="140" as="sourcePoint" />
            <mxPoint x="290" y="140.08999999999997" as="targetPoint" />
          </mxGeometry>
        </mxCell>
        <mxCell id="ijYvf7jys5PV-CXiAklp-14" value="&lt;span style=&quot;font-family: &amp;#34;verdana&amp;#34; ; font-size: 12px ; background-color: rgb(248 , 249 , 250)&quot;&gt;调支付&lt;/span&gt;" style="edgeLabel;html=1;align=center;verticalAlign=middle;resizable=0;points=[];" parent="7baba1c4bc27f4b0-11" vertex="1" connectable="0">
          <mxGeometry x="-0.2334" y="-2" relative="1" as="geometry">
            <mxPoint x="8.67" y="-1.67" as="offset" />
          </mxGeometry>
        </mxCell>
        <mxCell id="7baba1c4bc27f4b0-14" value="" style="html=1;verticalAlign=bottom;endArrow=block;entryX=0;entryY=0;labelBackgroundColor=none;fontFamily=Verdana;fontSize=12;edgeStyle=elbowEdgeStyle;elbow=vertical;" parent="1" edge="1">
          <mxGeometry x="-0.0021" relative="1" as="geometry">
            <mxPoint x="289.66666666666663" y="159.99666666666678" as="sourcePoint" />
            <mxPoint x="445" y="160.33000000000027" as="targetPoint" />
            <mxPoint as="offset" />
          </mxGeometry>
        </mxCell>
        <mxCell id="ijYvf7jys5PV-CXiAklp-13" value="&lt;span style=&quot;font-family: &amp;#34;verdana&amp;#34; ; font-size: 12px ; background-color: rgb(248 , 249 , 250)&quot;&gt;下37m层订单&lt;/span&gt;" style="edgeLabel;html=1;align=center;verticalAlign=middle;resizable=0;points=[];" parent="7baba1c4bc27f4b0-14" vertex="1" connectable="0">
          <mxGeometry x="-0.2127" relative="1" as="geometry">
            <mxPoint x="15.85" as="offset" />
          </mxGeometry>
        </mxCell>
        <mxCell id="7baba1c4bc27f4b0-36" value="判断支付状态" style="html=1;verticalAlign=bottom;endArrow=block;labelBackgroundColor=none;fontFamily=Verdana;fontSize=12;elbow=vertical;edgeStyle=orthogonalEdgeStyle;curved=1;" parent="1" edge="1">
          <mxGeometry x="1" y="40" relative="1" as="geometry">
            <mxPoint x="290" y="260" as="sourcePoint" />
            <mxPoint x="290" y="280" as="targetPoint" />
            <Array as="points">
              <mxPoint x="320" y="260" />
              <mxPoint x="320" y="280" />
            </Array>
            <mxPoint x="-40" y="-40" as="offset" />
          </mxGeometry>
        </mxCell>
        <mxCell id="ijYvf7jys5PV-CXiAklp-6" value="" style="endArrow=classic;html=1;" parent="1" edge="1">
          <mxGeometry width="50" height="50" relative="1" as="geometry">
            <mxPoint x="449.5000000000002" y="180" as="sourcePoint" />
            <mxPoint x="289.66666666666663" y="180" as="targetPoint" />
            <Array as="points">
              <mxPoint x="320" y="180" />
            </Array>
          </mxGeometry>
        </mxCell>
        <mxCell id="ijYvf7jys5PV-CXiAklp-7" value="返回订单" style="edgeLabel;html=1;align=center;verticalAlign=middle;resizable=0;points=[];" parent="ijYvf7jys5PV-CXiAklp-6" vertex="1" connectable="0">
          <mxGeometry x="-0.2486" y="-1" relative="1" as="geometry">
            <mxPoint x="-27.5" as="offset" />
          </mxGeometry>
        </mxCell>
        <mxCell id="ijYvf7jys5PV-CXiAklp-8" value="" style="endArrow=classic;html=1;" parent="1" edge="1">
          <mxGeometry width="50" height="50" relative="1" as="geometry">
            <mxPoint x="725.1700000000001" y="230" as="sourcePoint" />
            <mxPoint x="595" y="229.9999999999999" as="targetPoint" />
            <Array as="points" />
          </mxGeometry>
        </mxCell>
        <mxCell id="ijYvf7jys5PV-CXiAklp-9" value="返回订单" style="edgeLabel;html=1;align=center;verticalAlign=middle;resizable=0;points=[];" parent="ijYvf7jys5PV-CXiAklp-8" vertex="1" connectable="0">
          <mxGeometry x="-0.2486" y="-1" relative="1" as="geometry">
            <mxPoint x="-17.5" as="offset" />
          </mxGeometry>
        </mxCell>
        <mxCell id="ijYvf7jys5PV-CXiAklp-10" value="" style="html=1;verticalAlign=bottom;endArrow=block;labelBackgroundColor=none;fontFamily=Verdana;fontSize=12;edgeStyle=elbowEdgeStyle;elbow=vertical;" parent="1" edge="1">
          <mxGeometry relative="1" as="geometry">
            <mxPoint x="595" y="210.3270588235295" as="sourcePoint" />
            <mxPoint x="720" y="210.32999999999998" as="targetPoint" />
          </mxGeometry>
        </mxCell>
        <mxCell id="ijYvf7jys5PV-CXiAklp-16" value="&lt;span style=&quot;font-family: &amp;#34;verdana&amp;#34; ; font-size: 12px ; background-color: rgb(248 , 249 , 250)&quot;&gt;查询未消耗订单&lt;/span&gt;" style="edgeLabel;html=1;align=center;verticalAlign=middle;resizable=0;points=[];" parent="ijYvf7jys5PV-CXiAklp-10" vertex="1" connectable="0">
          <mxGeometry x="-0.1592" y="-2" relative="1" as="geometry">
            <mxPoint x="12.83" y="-1.67" as="offset" />
          </mxGeometry>
        </mxCell>
        <mxCell id="ijYvf7jys5PV-CXiAklp-11" value="" style="endArrow=classic;html=1;exitX=0.5;exitY=0.379;exitDx=0;exitDy=0;exitPerimeter=0;" parent="1" edge="1">
          <mxGeometry width="50" height="50" relative="1" as="geometry">
            <mxPoint x="590" y="239.82000000000005" as="sourcePoint" />
            <mxPoint x="290" y="240" as="targetPoint" />
          </mxGeometry>
        </mxCell>
        <mxCell id="ijYvf7jys5PV-CXiAklp-12" value="GP未消耗订单" style="edgeLabel;html=1;align=center;verticalAlign=middle;resizable=0;points=[];" parent="ijYvf7jys5PV-CXiAklp-11" vertex="1" connectable="0">
          <mxGeometry x="0.2551" y="2" relative="1" as="geometry">
            <mxPoint x="59.16" y="-5.85" as="offset" />
          </mxGeometry>
        </mxCell>
        <mxCell id="ijYvf7jys5PV-CXiAklp-17" value="" style="html=1;verticalAlign=bottom;endArrow=block;labelBackgroundColor=none;fontFamily=Verdana;fontSize=12;edgeStyle=elbowEdgeStyle;elbow=vertical;" parent="1" edge="1">
          <mxGeometry x="-0.5088" relative="1" as="geometry">
            <mxPoint x="295" y="380" as="sourcePoint" />
            <Array as="points">
              <mxPoint x="405" y="380" />
              <mxPoint x="305" y="390" />
            </Array>
            <mxPoint x="590" y="380" as="targetPoint" />
            <mxPoint as="offset" />
          </mxGeometry>
        </mxCell>
        <mxCell id="ijYvf7jys5PV-CXiAklp-18" value="&lt;span style=&quot;font-family: &amp;#34;verdana&amp;#34; ; font-size: 12px ; background-color: rgb(248 , 249 , 250)&quot;&gt;查询商品详情&lt;/span&gt;" style="edgeLabel;html=1;align=center;verticalAlign=middle;resizable=0;points=[];" parent="ijYvf7jys5PV-CXiAklp-17" vertex="1" connectable="0">
          <mxGeometry x="-0.4885" y="-1" relative="1" as="geometry">
            <mxPoint x="93.33" y="-1" as="offset" />
          </mxGeometry>
        </mxCell>
        <mxCell id="ijYvf7jys5PV-CXiAklp-20" value="" style="html=1;verticalAlign=bottom;endArrow=block;labelBackgroundColor=none;fontFamily=Verdana;fontSize=12;edgeStyle=elbowEdgeStyle;elbow=vertical;" parent="1" edge="1">
          <mxGeometry relative="1" as="geometry">
            <mxPoint x="595" y="390" as="sourcePoint" />
            <mxPoint x="730" y="390" as="targetPoint" />
            <Array as="points">
              <mxPoint x="615" y="390" />
            </Array>
          </mxGeometry>
        </mxCell>
        <mxCell id="ijYvf7jys5PV-CXiAklp-21" value="&lt;span style=&quot;font-family: &amp;#34;verdana&amp;#34; ; font-size: 12px ; background-color: rgb(248 , 249 , 250)&quot;&gt;查询商品详情&lt;/span&gt;" style="edgeLabel;html=1;align=center;verticalAlign=middle;resizable=0;points=[];" parent="ijYvf7jys5PV-CXiAklp-20" vertex="1" connectable="0">
          <mxGeometry x="-0.1592" y="-2" relative="1" as="geometry">
            <mxPoint x="12.83" y="-1.67" as="offset" />
          </mxGeometry>
        </mxCell>
        <mxCell id="ijYvf7jys5PV-CXiAklp-22" value="" style="endArrow=classic;html=1;" parent="1" edge="1">
          <mxGeometry width="50" height="50" relative="1" as="geometry">
            <mxPoint x="730" y="410" as="sourcePoint" />
            <mxPoint x="595" y="409.5799999999999" as="targetPoint" />
            <Array as="points" />
          </mxGeometry>
        </mxCell>
        <mxCell id="ijYvf7jys5PV-CXiAklp-23" value="返回商品详情" style="edgeLabel;html=1;align=center;verticalAlign=middle;resizable=0;points=[];" parent="ijYvf7jys5PV-CXiAklp-22" vertex="1" connectable="0">
          <mxGeometry x="-0.2486" y="-1" relative="1" as="geometry">
            <mxPoint x="-17.5" as="offset" />
          </mxGeometry>
        </mxCell>
        <mxCell id="ijYvf7jys5PV-CXiAklp-24" value="" style="endArrow=classic;html=1;" parent="1" edge="1">
          <mxGeometry width="50" height="50" relative="1" as="geometry">
            <mxPoint x="590" y="420" as="sourcePoint" />
            <mxPoint x="295" y="419.9999999999999" as="targetPoint" />
          </mxGeometry>
        </mxCell>
        <mxCell id="ijYvf7jys5PV-CXiAklp-25" value="返回商品详情" style="edgeLabel;html=1;align=center;verticalAlign=middle;resizable=0;points=[];" parent="ijYvf7jys5PV-CXiAklp-24" vertex="1" connectable="0">
          <mxGeometry x="0.2551" y="2" relative="1" as="geometry">
            <mxPoint x="59.16" y="-5.85" as="offset" />
          </mxGeometry>
        </mxCell>
        <mxCell id="ijYvf7jys5PV-CXiAklp-29" value="" style="endArrow=classic;html=1;" parent="1" edge="1">
          <mxGeometry width="50" height="50" relative="1" as="geometry">
            <mxPoint x="450" y="490" as="sourcePoint" />
            <mxPoint x="294.9966666666666" y="490" as="targetPoint" />
            <Array as="points" />
          </mxGeometry>
        </mxCell>
        <mxCell id="ijYvf7jys5PV-CXiAklp-30" value="回调" style="edgeLabel;html=1;align=center;verticalAlign=middle;resizable=0;points=[];" parent="ijYvf7jys5PV-CXiAklp-29" vertex="1" connectable="0">
          <mxGeometry x="-0.2486" y="-1" relative="1" as="geometry">
            <mxPoint x="-27.5" as="offset" />
          </mxGeometry>
        </mxCell>
        <mxCell id="ijYvf7jys5PV-CXiAklp-31" value="删除发货成功订单" style="html=1;verticalAlign=bottom;endArrow=block;labelBackgroundColor=none;fontFamily=Verdana;fontSize=12;elbow=vertical;edgeStyle=orthogonalEdgeStyle;curved=1;" parent="1" edge="1">
          <mxGeometry x="1" y="65" relative="1" as="geometry">
            <mxPoint x="295" y="509.9999999999999" as="sourcePoint" />
            <mxPoint x="295" y="530" as="targetPoint" />
            <Array as="points">
              <mxPoint x="325" y="510" />
              <mxPoint x="325" y="530" />
            </Array>
            <mxPoint x="-65" y="-65" as="offset" />
          </mxGeometry>
        </mxCell>
        <mxCell id="ijYvf7jys5PV-CXiAklp-32" value="" style="html=1;verticalAlign=bottom;endArrow=block;labelBackgroundColor=none;fontFamily=Verdana;fontSize=12;edgeStyle=elbowEdgeStyle;elbow=vertical;" parent="1" edge="1">
          <mxGeometry x="-0.5088" relative="1" as="geometry">
            <mxPoint x="295" y="549.9999999999999" as="sourcePoint" />
            <Array as="points">
              <mxPoint x="305" y="550" />
            </Array>
            <mxPoint x="590" y="550" as="targetPoint" />
            <mxPoint as="offset" />
          </mxGeometry>
        </mxCell>
        <mxCell id="ijYvf7jys5PV-CXiAklp-33" value="&lt;span style=&quot;font-family: &amp;#34;verdana&amp;#34; ; font-size: 12px ; background-color: rgb(248 , 249 , 250)&quot;&gt;调用消耗&lt;/span&gt;" style="edgeLabel;html=1;align=center;verticalAlign=middle;resizable=0;points=[];" parent="ijYvf7jys5PV-CXiAklp-32" vertex="1" connectable="0">
          <mxGeometry x="-0.4885" y="-1" relative="1" as="geometry">
            <mxPoint x="83.33" y="-1" as="offset" />
          </mxGeometry>
        </mxCell>
        <mxCell id="ijYvf7jys5PV-CXiAklp-34" value="" style="endArrow=classic;html=1;" parent="1" edge="1">
          <mxGeometry width="50" height="50" relative="1" as="geometry">
            <mxPoint x="589.5000000000002" y="589.9999999999999" as="sourcePoint" />
            <mxPoint x="295" y="589.9999999999999" as="targetPoint" />
          </mxGeometry>
        </mxCell>
        <mxCell id="ijYvf7jys5PV-CXiAklp-35" value="消耗回调" style="edgeLabel;html=1;align=center;verticalAlign=middle;resizable=0;points=[];" parent="ijYvf7jys5PV-CXiAklp-34" vertex="1" connectable="0">
          <mxGeometry x="0.2551" y="2" relative="1" as="geometry">
            <mxPoint x="50.5" y="-1.9999999999999996" as="offset" />
          </mxGeometry>
        </mxCell>
        <mxCell id="ijYvf7jys5PV-CXiAklp-36" value="" style="endArrow=classic;html=1;" parent="1" edge="1">
          <mxGeometry width="50" height="50" relative="1" as="geometry">
            <mxPoint x="290" y="500" as="sourcePoint" />
            <mxPoint x="159.99666666666656" y="500" as="targetPoint" />
            <Array as="points" />
          </mxGeometry>
        </mxCell>
        <mxCell id="ijYvf7jys5PV-CXiAklp-37" value="发货" style="edgeLabel;html=1;align=center;verticalAlign=middle;resizable=0;points=[];" parent="ijYvf7jys5PV-CXiAklp-36" vertex="1" connectable="0">
          <mxGeometry x="-0.2486" y="-1" relative="1" as="geometry">
            <mxPoint x="-27.5" y="1.06" as="offset" />
          </mxGeometry>
        </mxCell>
        <mxCell id="ijYvf7jys5PV-CXiAklp-40" value="" style="endArrow=classic;html=1;" parent="1" edge="1">
          <mxGeometry width="50" height="50" relative="1" as="geometry">
            <mxPoint x="720" y="580" as="sourcePoint" />
            <mxPoint x="595" y="580" as="targetPoint" />
            <Array as="points" />
          </mxGeometry>
        </mxCell>
        <mxCell id="ijYvf7jys5PV-CXiAklp-41" value="消耗回调" style="edgeLabel;html=1;align=center;verticalAlign=middle;resizable=0;points=[];" parent="ijYvf7jys5PV-CXiAklp-40" vertex="1" connectable="0">
          <mxGeometry x="-0.2486" y="-1" relative="1" as="geometry">
            <mxPoint x="-17.5" as="offset" />
          </mxGeometry>
        </mxCell>
        <mxCell id="ijYvf7jys5PV-CXiAklp-42" value="" style="html=1;verticalAlign=bottom;endArrow=block;labelBackgroundColor=none;fontFamily=Verdana;fontSize=12;edgeStyle=elbowEdgeStyle;elbow=vertical;" parent="1" edge="1">
          <mxGeometry x="-0.0021" relative="1" as="geometry">
            <mxPoint x="305" y="630" as="sourcePoint" />
            <mxPoint x="590" y="630" as="targetPoint" />
            <mxPoint as="offset" />
            <Array as="points">
              <mxPoint x="295" y="630" />
            </Array>
          </mxGeometry>
        </mxCell>
        <mxCell id="ijYvf7jys5PV-CXiAklp-43" value="&lt;span style=&quot;font-family: &amp;#34;verdana&amp;#34; ; font-size: 12px ; background-color: rgb(248 , 249 , 250)&quot;&gt;调用s层下单&lt;/span&gt;" style="edgeLabel;html=1;align=center;verticalAlign=middle;resizable=0;points=[];" parent="ijYvf7jys5PV-CXiAklp-42" vertex="1" connectable="0">
          <mxGeometry x="-0.2127" relative="1" as="geometry">
            <mxPoint x="48.33" as="offset" />
          </mxGeometry>
        </mxCell>
        <mxCell id="ijYvf7jys5PV-CXiAklp-44" value="" style="endArrow=classic;html=1;" parent="1" edge="1">
          <mxGeometry width="50" height="50" relative="1" as="geometry">
            <mxPoint x="589.5000000000002" y="650" as="sourcePoint" />
            <mxPoint x="295" y="650" as="targetPoint" />
          </mxGeometry>
        </mxCell>
        <mxCell id="ijYvf7jys5PV-CXiAklp-45" value="返回订单uuid" style="edgeLabel;html=1;align=center;verticalAlign=middle;resizable=0;points=[];" parent="ijYvf7jys5PV-CXiAklp-44" vertex="1" connectable="0">
          <mxGeometry x="0.2551" y="2" relative="1" as="geometry">
            <mxPoint x="50.5" y="-1.9999999999999996" as="offset" />
          </mxGeometry>
        </mxCell>
        <mxCell id="ijYvf7jys5PV-CXiAklp-46" value="" style="html=1;verticalAlign=bottom;endArrow=block;labelBackgroundColor=none;fontFamily=Verdana;fontSize=12;edgeStyle=elbowEdgeStyle;elbow=vertical;" parent="1" edge="1">
          <mxGeometry x="-0.0021" relative="1" as="geometry">
            <mxPoint x="305" y="670" as="sourcePoint" />
            <mxPoint x="590" y="670" as="targetPoint" />
            <mxPoint as="offset" />
            <Array as="points">
              <mxPoint x="295" y="670" />
            </Array>
          </mxGeometry>
        </mxCell>
        <mxCell id="ijYvf7jys5PV-CXiAklp-47" value="&lt;span style=&quot;font-family: &amp;#34;verdana&amp;#34; ; font-size: 12px ; background-color: rgb(248 , 249 , 250)&quot;&gt;调用GP下单&lt;/span&gt;" style="edgeLabel;html=1;align=center;verticalAlign=middle;resizable=0;points=[];" parent="ijYvf7jys5PV-CXiAklp-46" vertex="1" connectable="0">
          <mxGeometry x="-0.2127" relative="1" as="geometry">
            <mxPoint x="48.33" as="offset" />
          </mxGeometry>
        </mxCell>
        <mxCell id="ijYvf7jys5PV-CXiAklp-48" value="" style="html=1;verticalAlign=bottom;endArrow=block;labelBackgroundColor=none;fontFamily=Verdana;fontSize=12;edgeStyle=elbowEdgeStyle;elbow=vertical;" parent="1" edge="1">
          <mxGeometry relative="1" as="geometry">
            <mxPoint x="595" y="559.5799999999999" as="sourcePoint" />
            <mxPoint x="720" y="560" as="targetPoint" />
            <Array as="points">
              <mxPoint x="615" y="559.5799999999999" />
            </Array>
          </mxGeometry>
        </mxCell>
        <mxCell id="ijYvf7jys5PV-CXiAklp-49" value="&lt;span style=&quot;font-family: &amp;#34;verdana&amp;#34; ; font-size: 12px ; background-color: rgb(248 , 249 , 250)&quot;&gt;调用消耗&lt;/span&gt;" style="edgeLabel;html=1;align=center;verticalAlign=middle;resizable=0;points=[];" parent="ijYvf7jys5PV-CXiAklp-48" vertex="1" connectable="0">
          <mxGeometry x="-0.1592" y="-2" relative="1" as="geometry">
            <mxPoint x="12.83" y="-1.67" as="offset" />
          </mxGeometry>
        </mxCell>
        <mxCell id="ijYvf7jys5PV-CXiAklp-52" value="" style="endArrow=classic;html=1;" parent="1" edge="1">
          <mxGeometry width="50" height="50" relative="1" as="geometry">
            <mxPoint x="720" y="700" as="sourcePoint" />
            <mxPoint x="595" y="700.42" as="targetPoint" />
            <Array as="points" />
          </mxGeometry>
        </mxCell>
        <mxCell id="ijYvf7jys5PV-CXiAklp-53" value="返回GP订单" style="edgeLabel;html=1;align=center;verticalAlign=middle;resizable=0;points=[];" parent="ijYvf7jys5PV-CXiAklp-52" vertex="1" connectable="0">
          <mxGeometry x="-0.2486" y="-1" relative="1" as="geometry">
            <mxPoint x="-17.5" as="offset" />
          </mxGeometry>
        </mxCell>
        <mxCell id="ijYvf7jys5PV-CXiAklp-54" value="" style="html=1;verticalAlign=bottom;endArrow=block;labelBackgroundColor=none;fontFamily=Verdana;fontSize=12;edgeStyle=elbowEdgeStyle;elbow=vertical;" parent="1" edge="1">
          <mxGeometry relative="1" as="geometry">
            <mxPoint x="595" y="679.9999999999999" as="sourcePoint" />
            <mxPoint x="730" y="680" as="targetPoint" />
            <Array as="points">
              <mxPoint x="615" y="680" />
            </Array>
          </mxGeometry>
        </mxCell>
        <mxCell id="ijYvf7jys5PV-CXiAklp-55" value="&lt;span style=&quot;font-family: &amp;#34;verdana&amp;#34; ; font-size: 12px ; background-color: rgb(248 , 249 , 250)&quot;&gt;调用下单&lt;/span&gt;" style="edgeLabel;html=1;align=center;verticalAlign=middle;resizable=0;points=[];" parent="ijYvf7jys5PV-CXiAklp-54" vertex="1" connectable="0">
          <mxGeometry x="-0.1592" y="-2" relative="1" as="geometry">
            <mxPoint x="12.83" y="-1.67" as="offset" />
          </mxGeometry>
        </mxCell>
        <mxCell id="ijYvf7jys5PV-CXiAklp-56" value="" style="endArrow=classic;html=1;" parent="1" edge="1">
          <mxGeometry width="50" height="50" relative="1" as="geometry">
            <mxPoint x="589.5000000000002" y="710" as="sourcePoint" />
            <mxPoint x="295" y="710" as="targetPoint" />
          </mxGeometry>
        </mxCell>
        <mxCell id="ijYvf7jys5PV-CXiAklp-57" value="返回订单" style="edgeLabel;html=1;align=center;verticalAlign=middle;resizable=0;points=[];" parent="ijYvf7jys5PV-CXiAklp-56" vertex="1" connectable="0">
          <mxGeometry x="0.2551" y="2" relative="1" as="geometry">
            <mxPoint x="50.5" y="-1.9999999999999996" as="offset" />
          </mxGeometry>
        </mxCell>
        <mxCell id="ijYvf7jys5PV-CXiAklp-58" value="保存数据库订单" style="html=1;verticalAlign=bottom;endArrow=block;labelBackgroundColor=none;fontFamily=Verdana;fontSize=12;elbow=vertical;edgeStyle=orthogonalEdgeStyle;curved=1;" parent="1" edge="1">
          <mxGeometry x="1" y="50" relative="1" as="geometry">
            <mxPoint x="295" y="719.9999999999999" as="sourcePoint" />
            <mxPoint x="295" y="739.9999999999999" as="targetPoint" />
            <Array as="points">
              <mxPoint x="325" y="720" />
              <mxPoint x="325" y="740" />
            </Array>
            <mxPoint x="-50" y="-50" as="offset" />
          </mxGeometry>
        </mxCell>
        <mxCell id="ijYvf7jys5PV-CXiAklp-61" value="" style="html=1;verticalAlign=bottom;endArrow=block;labelBackgroundColor=none;fontFamily=Verdana;fontSize=12;edgeStyle=elbowEdgeStyle;elbow=vertical;" parent="1" edge="1">
          <mxGeometry x="-0.5088" relative="1" as="geometry">
            <mxPoint x="295" y="469.9999999999999" as="sourcePoint" />
            <Array as="points">
              <mxPoint x="305" y="470" />
            </Array>
            <mxPoint x="440" y="470" as="targetPoint" />
            <mxPoint as="offset" />
          </mxGeometry>
        </mxCell>
        <mxCell id="ijYvf7jys5PV-CXiAklp-62" value="&lt;span style=&quot;font-family: &amp;#34;verdana&amp;#34; ; font-size: 12px ; background-color: rgb(248 , 249 , 250)&quot;&gt;验证订单发货&lt;/span&gt;" style="edgeLabel;html=1;align=center;verticalAlign=middle;resizable=0;points=[];" parent="ijYvf7jys5PV-CXiAklp-61" vertex="1" connectable="0">
          <mxGeometry x="-0.4885" y="-1" relative="1" as="geometry">
            <mxPoint x="39.17" y="-1" as="offset" />
          </mxGeometry>
        </mxCell>
        <mxCell id="ijYvf7jys5PV-CXiAklp-63" value="" style="endArrow=classic;html=1;" parent="1" edge="1">
          <mxGeometry width="50" height="50" relative="1" as="geometry">
            <mxPoint x="440" y="780" as="sourcePoint" />
            <mxPoint x="299.99666666666667" y="779.9999999999999" as="targetPoint" />
            <Array as="points" />
          </mxGeometry>
        </mxCell>
        <mxCell id="ijYvf7jys5PV-CXiAklp-64" value="回调" style="edgeLabel;html=1;align=center;verticalAlign=middle;resizable=0;points=[];" parent="ijYvf7jys5PV-CXiAklp-63" vertex="1" connectable="0">
          <mxGeometry x="-0.2486" y="-1" relative="1" as="geometry">
            <mxPoint x="-27.5" as="offset" />
          </mxGeometry>
        </mxCell>
        <mxCell id="ijYvf7jys5PV-CXiAklp-65" value="删除发货成功订单" style="html=1;verticalAlign=bottom;endArrow=block;labelBackgroundColor=none;fontFamily=Verdana;fontSize=12;elbow=vertical;edgeStyle=orthogonalEdgeStyle;curved=1;" parent="1" edge="1">
          <mxGeometry x="1" y="50" relative="1" as="geometry">
            <mxPoint x="290" y="810" as="sourcePoint" />
            <mxPoint x="290" y="830" as="targetPoint" />
            <Array as="points">
              <mxPoint x="320" y="810" />
              <mxPoint x="320" y="830" />
            </Array>
            <mxPoint x="-50" y="-50" as="offset" />
          </mxGeometry>
        </mxCell>
        <mxCell id="ijYvf7jys5PV-CXiAklp-66" value="" style="html=1;verticalAlign=bottom;endArrow=block;labelBackgroundColor=none;fontFamily=Verdana;fontSize=12;edgeStyle=elbowEdgeStyle;elbow=vertical;" parent="1" edge="1">
          <mxGeometry x="-0.5088" relative="1" as="geometry">
            <mxPoint x="300" y="840" as="sourcePoint" />
            <Array as="points">
              <mxPoint x="310" y="840" />
            </Array>
            <mxPoint x="590" y="840" as="targetPoint" />
            <mxPoint as="offset" />
          </mxGeometry>
        </mxCell>
        <mxCell id="ijYvf7jys5PV-CXiAklp-67" value="&lt;span style=&quot;font-family: &amp;#34;verdana&amp;#34; ; font-size: 12px ; background-color: rgb(248 , 249 , 250)&quot;&gt;调用消耗&lt;/span&gt;" style="edgeLabel;html=1;align=center;verticalAlign=middle;resizable=0;points=[];" parent="ijYvf7jys5PV-CXiAklp-66" vertex="1" connectable="0">
          <mxGeometry x="-0.4885" y="-1" relative="1" as="geometry">
            <mxPoint x="83.33" y="-1" as="offset" />
          </mxGeometry>
        </mxCell>
        <mxCell id="ijYvf7jys5PV-CXiAklp-68" value="" style="endArrow=classic;html=1;" parent="1" edge="1">
          <mxGeometry width="50" height="50" relative="1" as="geometry">
            <mxPoint x="590" y="880" as="sourcePoint" />
            <mxPoint x="300" y="880" as="targetPoint" />
          </mxGeometry>
        </mxCell>
        <mxCell id="ijYvf7jys5PV-CXiAklp-69" value="消耗回调" style="edgeLabel;html=1;align=center;verticalAlign=middle;resizable=0;points=[];" parent="ijYvf7jys5PV-CXiAklp-68" vertex="1" connectable="0">
          <mxGeometry x="0.2551" y="2" relative="1" as="geometry">
            <mxPoint x="50.5" y="-1.9999999999999996" as="offset" />
          </mxGeometry>
        </mxCell>
        <mxCell id="ijYvf7jys5PV-CXiAklp-70" value="" style="endArrow=classic;html=1;" parent="1" edge="1">
          <mxGeometry width="50" height="50" relative="1" as="geometry">
            <mxPoint x="280" y="790" as="sourcePoint" />
            <mxPoint x="164.99666666666667" y="789.9999999999999" as="targetPoint" />
            <Array as="points" />
          </mxGeometry>
        </mxCell>
        <mxCell id="ijYvf7jys5PV-CXiAklp-71" value="发货" style="edgeLabel;html=1;align=center;verticalAlign=middle;resizable=0;points=[];" parent="ijYvf7jys5PV-CXiAklp-70" vertex="1" connectable="0">
          <mxGeometry x="-0.2486" y="-1" relative="1" as="geometry">
            <mxPoint x="-27.5" y="1.06" as="offset" />
          </mxGeometry>
        </mxCell>
        <mxCell id="ijYvf7jys5PV-CXiAklp-72" value="" style="endArrow=classic;html=1;entryX=0.5;entryY=0.911;entryDx=0;entryDy=0;entryPerimeter=0;" parent="1" edge="1">
          <mxGeometry width="50" height="50" relative="1" as="geometry">
            <mxPoint x="730" y="870" as="sourcePoint" />
            <mxPoint x="595" y="869.69" as="targetPoint" />
            <Array as="points" />
          </mxGeometry>
        </mxCell>
        <mxCell id="ijYvf7jys5PV-CXiAklp-73" value="消耗回调" style="edgeLabel;html=1;align=center;verticalAlign=middle;resizable=0;points=[];" parent="ijYvf7jys5PV-CXiAklp-72" vertex="1" connectable="0">
          <mxGeometry x="-0.2486" y="-1" relative="1" as="geometry">
            <mxPoint x="-17.5" as="offset" />
          </mxGeometry>
        </mxCell>
        <mxCell id="ijYvf7jys5PV-CXiAklp-74" value="" style="html=1;verticalAlign=bottom;endArrow=block;labelBackgroundColor=none;fontFamily=Verdana;fontSize=12;edgeStyle=elbowEdgeStyle;elbow=vertical;exitX=0.5;exitY=0.886;exitDx=0;exitDy=0;exitPerimeter=0;" parent="1" edge="1">
          <mxGeometry relative="1" as="geometry">
            <mxPoint x="595" y="849.9399999999998" as="sourcePoint" />
            <mxPoint x="730" y="850" as="targetPoint" />
            <Array as="points">
              <mxPoint x="620" y="849.5799999999999" />
            </Array>
          </mxGeometry>
        </mxCell>
        <mxCell id="ijYvf7jys5PV-CXiAklp-75" value="&lt;span style=&quot;font-family: &amp;#34;verdana&amp;#34; ; font-size: 12px ; background-color: rgb(248 , 249 , 250)&quot;&gt;调用消耗&lt;/span&gt;" style="edgeLabel;html=1;align=center;verticalAlign=middle;resizable=0;points=[];" parent="ijYvf7jys5PV-CXiAklp-74" vertex="1" connectable="0">
          <mxGeometry x="-0.1592" y="-2" relative="1" as="geometry">
            <mxPoint x="12.83" y="-1.67" as="offset" />
          </mxGeometry>
        </mxCell>
        <mxCell id="ijYvf7jys5PV-CXiAklp-76" value="" style="html=1;verticalAlign=bottom;endArrow=block;labelBackgroundColor=none;fontFamily=Verdana;fontSize=12;edgeStyle=elbowEdgeStyle;elbow=vertical;" parent="1" edge="1">
          <mxGeometry x="-0.5088" relative="1" as="geometry">
            <mxPoint x="300" y="759.9999999999999" as="sourcePoint" />
            <Array as="points">
              <mxPoint x="310" y="760" />
            </Array>
            <mxPoint x="440" y="760" as="targetPoint" />
            <mxPoint as="offset" />
          </mxGeometry>
        </mxCell>
        <mxCell id="ijYvf7jys5PV-CXiAklp-77" value="&lt;span style=&quot;font-family: &amp;#34;verdana&amp;#34; ; font-size: 12px ; background-color: rgb(248 , 249 , 250)&quot;&gt;验证订单发货&lt;/span&gt;" style="edgeLabel;html=1;align=center;verticalAlign=middle;resizable=0;points=[];" parent="ijYvf7jys5PV-CXiAklp-76" vertex="1" connectable="0">
          <mxGeometry x="-0.4885" y="-1" relative="1" as="geometry">
            <mxPoint x="39.17" y="-1" as="offset" />
          </mxGeometry>
        </mxCell>
        <mxCell id="n2cDFG20tBwnVBeYgRVI-6" value="" style="html=1;verticalAlign=bottom;endArrow=block;entryX=0;entryY=0;labelBackgroundColor=none;fontFamily=Verdana;fontSize=12;edgeStyle=elbowEdgeStyle;elbow=vertical;" edge="1" parent="1">
          <mxGeometry x="-0.0021" relative="1" as="geometry">
            <mxPoint x="289.9966666666665" y="309.9966666666668" as="sourcePoint" />
            <mxPoint x="445.33" y="310.33000000000027" as="targetPoint" />
            <mxPoint as="offset" />
          </mxGeometry>
        </mxCell>
        <mxCell id="n2cDFG20tBwnVBeYgRVI-7" value="&lt;span style=&quot;font-family: &amp;#34;verdana&amp;#34; ; font-size: 12px ; background-color: rgb(248 , 249 , 250)&quot;&gt;若本地参数为空，&lt;br&gt;发起请求&lt;/span&gt;" style="edgeLabel;html=1;align=center;verticalAlign=middle;resizable=0;points=[];" vertex="1" connectable="0" parent="n2cDFG20tBwnVBeYgRVI-6">
          <mxGeometry x="-0.2127" relative="1" as="geometry">
            <mxPoint x="15.85" as="offset" />
          </mxGeometry>
        </mxCell>
        <mxCell id="N9v2IrfW_b8zCq767CaY-1" value="" style="endArrow=classic;html=1;" edge="1" parent="1">
          <mxGeometry width="50" height="50" relative="1" as="geometry">
            <mxPoint x="450.3299999999999" y="350" as="sourcePoint" />
            <mxPoint x="289.99666666666667" y="350" as="targetPoint" />
            <Array as="points" />
          </mxGeometry>
        </mxCell>
        <mxCell id="N9v2IrfW_b8zCq767CaY-2" value="返回paid、uuid" style="edgeLabel;html=1;align=center;verticalAlign=middle;resizable=0;points=[];" vertex="1" connectable="0" parent="N9v2IrfW_b8zCq767CaY-1">
          <mxGeometry x="-0.2486" y="-1" relative="1" as="geometry">
            <mxPoint x="-27.5" as="offset" />
          </mxGeometry>
        </mxCell>
      </root>
    </mxGraphModel>
  </diagram>
  <diagram id="ywAOKPfOz4_fddETgZem" name="谷歌补单流程">
    <mxGraphModel dx="867" dy="746" grid="1" gridSize="10" guides="1" tooltips="1" connect="1" arrows="1" fold="1" page="1" pageScale="1" pageWidth="827" pageHeight="1169" math="0" shadow="0">
      <root>
        <mxCell id="h0jIuT4aVY_ETxPQJ-Oq-0" />
        <mxCell id="h0jIuT4aVY_ETxPQJ-Oq-1" parent="h0jIuT4aVY_ETxPQJ-Oq-0" />
        <mxCell id="h0jIuT4aVY_ETxPQJ-Oq-2" value="37sdk" style="shape=umlLifeline;perimeter=lifelinePerimeter;whiteSpace=wrap;html=1;container=1;collapsible=0;recursiveResize=0;outlineConnect=0;rounded=1;shadow=0;comic=0;labelBackgroundColor=none;strokeWidth=1;fontFamily=Verdana;fontSize=12;align=center;" parent="h0jIuT4aVY_ETxPQJ-Oq-1" vertex="1">
          <mxGeometry x="240" y="120" width="100" height="520" as="geometry" />
        </mxCell>
        <mxCell id="h0jIuT4aVY_ETxPQJ-Oq-3" value="37后台" style="shape=umlLifeline;perimeter=lifelinePerimeter;whiteSpace=wrap;html=1;container=1;collapsible=0;recursiveResize=0;outlineConnect=0;rounded=1;shadow=0;comic=0;labelBackgroundColor=none;strokeWidth=1;fontFamily=Verdana;fontSize=12;align=center;" parent="h0jIuT4aVY_ETxPQJ-Oq-1" vertex="1">
          <mxGeometry x="400" y="120" width="100" height="510" as="geometry" />
        </mxCell>
        <mxCell id="h0jIuT4aVY_ETxPQJ-Oq-4" value="GPsdk" style="shape=umlLifeline;perimeter=lifelinePerimeter;whiteSpace=wrap;html=1;container=1;collapsible=0;recursiveResize=0;outlineConnect=0;rounded=1;shadow=0;comic=0;labelBackgroundColor=none;strokeWidth=1;fontFamily=Verdana;fontSize=12;align=center;" parent="h0jIuT4aVY_ETxPQJ-Oq-1" vertex="1">
          <mxGeometry x="540" y="120" width="100" height="510" as="geometry" />
        </mxCell>
        <mxCell id="h0jIuT4aVY_ETxPQJ-Oq-5" value="GP后台" style="shape=umlLifeline;perimeter=lifelinePerimeter;whiteSpace=wrap;html=1;container=1;collapsible=0;recursiveResize=0;outlineConnect=0;rounded=1;shadow=0;comic=0;labelBackgroundColor=none;strokeWidth=1;fontFamily=Verdana;fontSize=12;align=center;" parent="h0jIuT4aVY_ETxPQJ-Oq-1" vertex="1">
          <mxGeometry x="680" y="120" width="100" height="510" as="geometry" />
        </mxCell>
        <mxCell id="h0jIuT4aVY_ETxPQJ-Oq-8" value="" style="html=1;verticalAlign=bottom;endArrow=block;labelBackgroundColor=none;fontFamily=Verdana;fontSize=12;edgeStyle=elbowEdgeStyle;elbow=vertical;" parent="h0jIuT4aVY_ETxPQJ-Oq-1" edge="1">
          <mxGeometry x="-0.5088" relative="1" as="geometry">
            <mxPoint x="289.6666666666665" y="199.9999999999999" as="sourcePoint" />
            <Array as="points">
              <mxPoint x="310" y="200" />
            </Array>
            <mxPoint x="590" y="199.9999999999999" as="targetPoint" />
            <mxPoint as="offset" />
          </mxGeometry>
        </mxCell>
        <mxCell id="h0jIuT4aVY_ETxPQJ-Oq-9" value="&lt;span style=&quot;font-family: &amp;#34;verdana&amp;#34; ; font-size: 12px ; background-color: rgb(248 , 249 , 250)&quot;&gt;查询未消耗订单&lt;/span&gt;" style="edgeLabel;html=1;align=center;verticalAlign=middle;resizable=0;points=[];" parent="h0jIuT4aVY_ETxPQJ-Oq-8" vertex="1" connectable="0">
          <mxGeometry x="-0.4885" y="-1" relative="1" as="geometry">
            <mxPoint x="80.83" y="-1" as="offset" />
          </mxGeometry>
        </mxCell>
        <mxCell id="h0jIuT4aVY_ETxPQJ-Oq-15" value="&lt;font style=&quot;font-size: 18px&quot;&gt;调用时机：&lt;br&gt;初始化以后&lt;/font&gt;" style="shape=note;whiteSpace=wrap;html=1;size=14;verticalAlign=top;align=left;spacingTop=-6;rounded=0;shadow=0;comic=0;labelBackgroundColor=none;strokeWidth=1;fontFamily=Verdana;fontSize=12" parent="h0jIuT4aVY_ETxPQJ-Oq-1" vertex="1">
          <mxGeometry x="70" y="80" width="110" height="50" as="geometry" />
        </mxCell>
        <mxCell id="h0jIuT4aVY_ETxPQJ-Oq-22" value="" style="endArrow=classic;html=1;" parent="h0jIuT4aVY_ETxPQJ-Oq-1" edge="1">
          <mxGeometry width="50" height="50" relative="1" as="geometry">
            <mxPoint x="725.1700000000001" y="230" as="sourcePoint" />
            <mxPoint x="595" y="229.9999999999999" as="targetPoint" />
            <Array as="points" />
          </mxGeometry>
        </mxCell>
        <mxCell id="h0jIuT4aVY_ETxPQJ-Oq-23" value="返回订单" style="edgeLabel;html=1;align=center;verticalAlign=middle;resizable=0;points=[];" parent="h0jIuT4aVY_ETxPQJ-Oq-22" vertex="1" connectable="0">
          <mxGeometry x="-0.2486" y="-1" relative="1" as="geometry">
            <mxPoint x="-17.5" as="offset" />
          </mxGeometry>
        </mxCell>
        <mxCell id="h0jIuT4aVY_ETxPQJ-Oq-24" value="" style="html=1;verticalAlign=bottom;endArrow=block;labelBackgroundColor=none;fontFamily=Verdana;fontSize=12;edgeStyle=elbowEdgeStyle;elbow=vertical;" parent="h0jIuT4aVY_ETxPQJ-Oq-1" edge="1">
          <mxGeometry relative="1" as="geometry">
            <mxPoint x="595" y="210.32705882352957" as="sourcePoint" />
            <mxPoint x="720" y="210.32999999999993" as="targetPoint" />
          </mxGeometry>
        </mxCell>
        <mxCell id="h0jIuT4aVY_ETxPQJ-Oq-25" value="&lt;span style=&quot;font-family: &amp;#34;verdana&amp;#34; ; font-size: 12px ; background-color: rgb(248 , 249 , 250)&quot;&gt;查询未消耗订单&lt;/span&gt;" style="edgeLabel;html=1;align=center;verticalAlign=middle;resizable=0;points=[];" parent="h0jIuT4aVY_ETxPQJ-Oq-24" vertex="1" connectable="0">
          <mxGeometry x="-0.1592" y="-2" relative="1" as="geometry">
            <mxPoint x="12.83" y="-1.67" as="offset" />
          </mxGeometry>
        </mxCell>
        <mxCell id="h0jIuT4aVY_ETxPQJ-Oq-26" value="" style="endArrow=classic;html=1;exitX=0.5;exitY=0.379;exitDx=0;exitDy=0;exitPerimeter=0;" parent="h0jIuT4aVY_ETxPQJ-Oq-1" edge="1">
          <mxGeometry width="50" height="50" relative="1" as="geometry">
            <mxPoint x="590" y="239.82000000000005" as="sourcePoint" />
            <mxPoint x="290" y="240" as="targetPoint" />
          </mxGeometry>
        </mxCell>
        <mxCell id="h0jIuT4aVY_ETxPQJ-Oq-27" value="返回订单" style="edgeLabel;html=1;align=center;verticalAlign=middle;resizable=0;points=[];" parent="h0jIuT4aVY_ETxPQJ-Oq-26" vertex="1" connectable="0">
          <mxGeometry x="0.2551" y="2" relative="1" as="geometry">
            <mxPoint x="48" y="-1.9299999999999997" as="offset" />
          </mxGeometry>
        </mxCell>
        <mxCell id="h0jIuT4aVY_ETxPQJ-Oq-28" value="" style="html=1;verticalAlign=bottom;endArrow=block;labelBackgroundColor=none;fontFamily=Verdana;fontSize=12;edgeStyle=elbowEdgeStyle;elbow=vertical;" parent="h0jIuT4aVY_ETxPQJ-Oq-1" edge="1">
          <mxGeometry x="-0.5088" relative="1" as="geometry">
            <mxPoint x="290" y="360" as="sourcePoint" />
            <Array as="points">
              <mxPoint x="400" y="360" />
              <mxPoint x="300" y="370" />
            </Array>
            <mxPoint x="589.5000000000002" y="360" as="targetPoint" />
            <mxPoint as="offset" />
          </mxGeometry>
        </mxCell>
        <mxCell id="h0jIuT4aVY_ETxPQJ-Oq-29" value="&lt;span style=&quot;font-family: &amp;#34;verdana&amp;#34; ; font-size: 12px ; background-color: rgb(248 , 249 , 250)&quot;&gt;查询商品详情&lt;/span&gt;" style="edgeLabel;html=1;align=center;verticalAlign=middle;resizable=0;points=[];" parent="h0jIuT4aVY_ETxPQJ-Oq-28" vertex="1" connectable="0">
          <mxGeometry x="-0.4885" y="-1" relative="1" as="geometry">
            <mxPoint x="93.33" y="-1" as="offset" />
          </mxGeometry>
        </mxCell>
        <mxCell id="h0jIuT4aVY_ETxPQJ-Oq-30" value="" style="html=1;verticalAlign=bottom;endArrow=block;labelBackgroundColor=none;fontFamily=Verdana;fontSize=12;edgeStyle=elbowEdgeStyle;elbow=vertical;" parent="h0jIuT4aVY_ETxPQJ-Oq-1" edge="1">
          <mxGeometry relative="1" as="geometry">
            <mxPoint x="590" y="370" as="sourcePoint" />
            <mxPoint x="729.5000000000002" y="370" as="targetPoint" />
            <Array as="points">
              <mxPoint x="610" y="370" />
            </Array>
          </mxGeometry>
        </mxCell>
        <mxCell id="h0jIuT4aVY_ETxPQJ-Oq-31" value="&lt;span style=&quot;font-family: &amp;#34;verdana&amp;#34; ; font-size: 12px ; background-color: rgb(248 , 249 , 250)&quot;&gt;查询商品详情&lt;/span&gt;" style="edgeLabel;html=1;align=center;verticalAlign=middle;resizable=0;points=[];" parent="h0jIuT4aVY_ETxPQJ-Oq-30" vertex="1" connectable="0">
          <mxGeometry x="-0.1592" y="-2" relative="1" as="geometry">
            <mxPoint x="12.83" y="-1.67" as="offset" />
          </mxGeometry>
        </mxCell>
        <mxCell id="h0jIuT4aVY_ETxPQJ-Oq-32" value="" style="endArrow=classic;html=1;" parent="h0jIuT4aVY_ETxPQJ-Oq-1" edge="1">
          <mxGeometry width="50" height="50" relative="1" as="geometry">
            <mxPoint x="729.5000000000002" y="389.5799999999999" as="sourcePoint" />
            <mxPoint x="590" y="389.5799999999999" as="targetPoint" />
            <Array as="points" />
          </mxGeometry>
        </mxCell>
        <mxCell id="h0jIuT4aVY_ETxPQJ-Oq-33" value="返回商品详情" style="edgeLabel;html=1;align=center;verticalAlign=middle;resizable=0;points=[];" parent="h0jIuT4aVY_ETxPQJ-Oq-32" vertex="1" connectable="0">
          <mxGeometry x="-0.2486" y="-1" relative="1" as="geometry">
            <mxPoint x="-17.5" as="offset" />
          </mxGeometry>
        </mxCell>
        <mxCell id="h0jIuT4aVY_ETxPQJ-Oq-34" value="" style="endArrow=classic;html=1;" parent="h0jIuT4aVY_ETxPQJ-Oq-1" edge="1">
          <mxGeometry width="50" height="50" relative="1" as="geometry">
            <mxPoint x="589.5000000000002" y="400" as="sourcePoint" />
            <mxPoint x="290" y="400" as="targetPoint" />
          </mxGeometry>
        </mxCell>
        <mxCell id="h0jIuT4aVY_ETxPQJ-Oq-35" value="返回商品详情" style="edgeLabel;html=1;align=center;verticalAlign=middle;resizable=0;points=[];" parent="h0jIuT4aVY_ETxPQJ-Oq-34" vertex="1" connectable="0">
          <mxGeometry x="0.2551" y="2" relative="1" as="geometry">
            <mxPoint x="59.16" y="-5.85" as="offset" />
          </mxGeometry>
        </mxCell>
        <mxCell id="h0jIuT4aVY_ETxPQJ-Oq-36" value="" style="html=1;verticalAlign=bottom;endArrow=block;labelBackgroundColor=none;fontFamily=Verdana;fontSize=12;edgeStyle=elbowEdgeStyle;elbow=vertical;" parent="h0jIuT4aVY_ETxPQJ-Oq-1" edge="1">
          <mxGeometry x="-0.5088" relative="1" as="geometry">
            <mxPoint x="290" y="430" as="sourcePoint" />
            <Array as="points">
              <mxPoint x="300" y="430" />
            </Array>
            <mxPoint x="450" y="430" as="targetPoint" />
            <mxPoint as="offset" />
          </mxGeometry>
        </mxCell>
        <mxCell id="h0jIuT4aVY_ETxPQJ-Oq-37" value="&lt;span style=&quot;font-family: &amp;#34;verdana&amp;#34; ; font-size: 12px ; background-color: rgb(248 , 249 , 250)&quot;&gt;验证订单发货&lt;/span&gt;" style="edgeLabel;html=1;align=center;verticalAlign=middle;resizable=0;points=[];" parent="h0jIuT4aVY_ETxPQJ-Oq-36" vertex="1" connectable="0">
          <mxGeometry x="-0.4885" y="-1" relative="1" as="geometry">
            <mxPoint x="39.17" y="-1" as="offset" />
          </mxGeometry>
        </mxCell>
        <mxCell id="h0jIuT4aVY_ETxPQJ-Oq-39" value="" style="endArrow=classic;html=1;" parent="h0jIuT4aVY_ETxPQJ-Oq-1" edge="1">
          <mxGeometry width="50" height="50" relative="1" as="geometry">
            <mxPoint x="450.3299999999999" y="450" as="sourcePoint" />
            <mxPoint x="289.99666666666667" y="450" as="targetPoint" />
            <Array as="points" />
          </mxGeometry>
        </mxCell>
        <mxCell id="h0jIuT4aVY_ETxPQJ-Oq-40" value="回调" style="edgeLabel;html=1;align=center;verticalAlign=middle;resizable=0;points=[];" parent="h0jIuT4aVY_ETxPQJ-Oq-39" vertex="1" connectable="0">
          <mxGeometry x="-0.2486" y="-1" relative="1" as="geometry">
            <mxPoint x="-27.5" as="offset" />
          </mxGeometry>
        </mxCell>
        <mxCell id="h0jIuT4aVY_ETxPQJ-Oq-41" value="发货成功后&lt;br&gt;删除数据库订单" style="html=1;verticalAlign=bottom;endArrow=block;labelBackgroundColor=none;fontFamily=Verdana;fontSize=12;elbow=vertical;edgeStyle=orthogonalEdgeStyle;curved=1;" parent="h0jIuT4aVY_ETxPQJ-Oq-1" edge="1">
          <mxGeometry x="1" y="61" relative="1" as="geometry">
            <mxPoint x="290" y="470" as="sourcePoint" />
            <mxPoint x="290" y="490" as="targetPoint" />
            <Array as="points">
              <mxPoint x="320" y="470" />
              <mxPoint x="320" y="490" />
            </Array>
            <mxPoint x="-60" y="-51" as="offset" />
          </mxGeometry>
        </mxCell>
        <mxCell id="h0jIuT4aVY_ETxPQJ-Oq-42" value="" style="html=1;verticalAlign=bottom;endArrow=block;labelBackgroundColor=none;fontFamily=Verdana;fontSize=12;edgeStyle=elbowEdgeStyle;elbow=vertical;" parent="h0jIuT4aVY_ETxPQJ-Oq-1" edge="1">
          <mxGeometry x="-0.5088" relative="1" as="geometry">
            <mxPoint x="290" y="510" as="sourcePoint" />
            <Array as="points">
              <mxPoint x="300" y="510" />
            </Array>
            <mxPoint x="589.5000000000002" y="510" as="targetPoint" />
            <mxPoint as="offset" />
          </mxGeometry>
        </mxCell>
        <mxCell id="h0jIuT4aVY_ETxPQJ-Oq-43" value="&lt;span style=&quot;font-family: &amp;#34;verdana&amp;#34; ; font-size: 12px ; background-color: rgb(248 , 249 , 250)&quot;&gt;调用消耗&lt;/span&gt;" style="edgeLabel;html=1;align=center;verticalAlign=middle;resizable=0;points=[];" parent="h0jIuT4aVY_ETxPQJ-Oq-42" vertex="1" connectable="0">
          <mxGeometry x="-0.4885" y="-1" relative="1" as="geometry">
            <mxPoint x="83.33" y="-1" as="offset" />
          </mxGeometry>
        </mxCell>
        <mxCell id="h0jIuT4aVY_ETxPQJ-Oq-44" value="" style="endArrow=classic;html=1;" parent="h0jIuT4aVY_ETxPQJ-Oq-1" edge="1">
          <mxGeometry width="50" height="50" relative="1" as="geometry">
            <mxPoint x="584.5000000000002" y="550" as="sourcePoint" />
            <mxPoint x="290" y="550" as="targetPoint" />
          </mxGeometry>
        </mxCell>
        <mxCell id="h0jIuT4aVY_ETxPQJ-Oq-45" value="消耗回调" style="edgeLabel;html=1;align=center;verticalAlign=middle;resizable=0;points=[];" parent="h0jIuT4aVY_ETxPQJ-Oq-44" vertex="1" connectable="0">
          <mxGeometry x="0.2551" y="2" relative="1" as="geometry">
            <mxPoint x="50.5" y="-1.9999999999999996" as="offset" />
          </mxGeometry>
        </mxCell>
        <mxCell id="h0jIuT4aVY_ETxPQJ-Oq-48" value="" style="html=1;verticalAlign=bottom;endArrow=block;labelBackgroundColor=none;fontFamily=Verdana;fontSize=12;edgeStyle=elbowEdgeStyle;elbow=vertical;" parent="h0jIuT4aVY_ETxPQJ-Oq-1" edge="1">
          <mxGeometry relative="1" as="geometry">
            <mxPoint x="590" y="520" as="sourcePoint" />
            <mxPoint x="729.5000000000002" y="520" as="targetPoint" />
            <Array as="points">
              <mxPoint x="610" y="520" />
            </Array>
          </mxGeometry>
        </mxCell>
        <mxCell id="h0jIuT4aVY_ETxPQJ-Oq-49" value="&lt;span style=&quot;font-family: &amp;#34;verdana&amp;#34; ; font-size: 12px ; background-color: rgb(248 , 249 , 250)&quot;&gt;调用消耗&lt;/span&gt;" style="edgeLabel;html=1;align=center;verticalAlign=middle;resizable=0;points=[];" parent="h0jIuT4aVY_ETxPQJ-Oq-48" vertex="1" connectable="0">
          <mxGeometry x="-0.1592" y="-2" relative="1" as="geometry">
            <mxPoint x="12.83" y="-1.67" as="offset" />
          </mxGeometry>
        </mxCell>
        <mxCell id="h0jIuT4aVY_ETxPQJ-Oq-50" value="" style="endArrow=classic;html=1;" parent="h0jIuT4aVY_ETxPQJ-Oq-1" edge="1">
          <mxGeometry width="50" height="50" relative="1" as="geometry">
            <mxPoint x="729.5000000000002" y="540" as="sourcePoint" />
            <mxPoint x="590" y="540" as="targetPoint" />
            <Array as="points" />
          </mxGeometry>
        </mxCell>
        <mxCell id="h0jIuT4aVY_ETxPQJ-Oq-51" value="消耗回调" style="edgeLabel;html=1;align=center;verticalAlign=middle;resizable=0;points=[];" parent="h0jIuT4aVY_ETxPQJ-Oq-50" vertex="1" connectable="0">
          <mxGeometry x="-0.2486" y="-1" relative="1" as="geometry">
            <mxPoint x="-17.5" as="offset" />
          </mxGeometry>
        </mxCell>
        <mxCell id="h0jIuT4aVY_ETxPQJ-Oq-58" value="" style="html=1;verticalAlign=bottom;endArrow=block;labelBackgroundColor=none;fontFamily=Verdana;fontSize=12;edgeStyle=elbowEdgeStyle;elbow=vertical;" parent="h0jIuT4aVY_ETxPQJ-Oq-1" edge="1">
          <mxGeometry relative="1" as="geometry">
            <mxPoint x="590" y="519.5799999999999" as="sourcePoint" />
            <mxPoint x="729.5000000000002" y="519.5799999999999" as="targetPoint" />
            <Array as="points">
              <mxPoint x="610" y="519.5799999999999" />
            </Array>
          </mxGeometry>
        </mxCell>
        <mxCell id="h0jIuT4aVY_ETxPQJ-Oq-59" value="&lt;span style=&quot;font-family: &amp;#34;verdana&amp;#34; ; font-size: 12px ; background-color: rgb(248 , 249 , 250)&quot;&gt;调用消耗&lt;/span&gt;" style="edgeLabel;html=1;align=center;verticalAlign=middle;resizable=0;points=[];" parent="h0jIuT4aVY_ETxPQJ-Oq-58" vertex="1" connectable="0">
          <mxGeometry x="-0.1592" y="-2" relative="1" as="geometry">
            <mxPoint x="12.83" y="-1.67" as="offset" />
          </mxGeometry>
        </mxCell>
        <mxCell id="h0jIuT4aVY_ETxPQJ-Oq-60" value="" style="html=1;verticalAlign=bottom;endArrow=block;labelBackgroundColor=none;fontFamily=Verdana;fontSize=12;edgeStyle=elbowEdgeStyle;elbow=vertical;" parent="h0jIuT4aVY_ETxPQJ-Oq-1" edge="1">
          <mxGeometry relative="1" as="geometry">
            <mxPoint x="590" y="519.5799999999999" as="sourcePoint" />
            <mxPoint x="729.5000000000002" y="519.5799999999999" as="targetPoint" />
            <Array as="points">
              <mxPoint x="610" y="519.5799999999999" />
            </Array>
          </mxGeometry>
        </mxCell>
        <mxCell id="h0jIuT4aVY_ETxPQJ-Oq-61" value="&lt;span style=&quot;font-family: &amp;#34;verdana&amp;#34; ; font-size: 12px ; background-color: rgb(248 , 249 , 250)&quot;&gt;调用消耗&lt;/span&gt;" style="edgeLabel;html=1;align=center;verticalAlign=middle;resizable=0;points=[];" parent="h0jIuT4aVY_ETxPQJ-Oq-60" vertex="1" connectable="0">
          <mxGeometry x="-0.1592" y="-2" relative="1" as="geometry">
            <mxPoint x="12.83" y="-1.67" as="offset" />
          </mxGeometry>
        </mxCell>
        <mxCell id="h0jIuT4aVY_ETxPQJ-Oq-69" value="" style="html=1;verticalAlign=bottom;endArrow=block;labelBackgroundColor=none;fontFamily=Verdana;fontSize=12;edgeStyle=elbowEdgeStyle;elbow=vertical;" parent="h0jIuT4aVY_ETxPQJ-Oq-1" edge="1">
          <mxGeometry x="-0.5088" relative="1" as="geometry">
            <mxPoint x="290" y="430" as="sourcePoint" />
            <Array as="points">
              <mxPoint x="300" y="430" />
            </Array>
            <mxPoint x="450" y="430" as="targetPoint" />
            <mxPoint as="offset" />
          </mxGeometry>
        </mxCell>
        <mxCell id="h0jIuT4aVY_ETxPQJ-Oq-70" value="&lt;span style=&quot;font-family: &amp;#34;verdana&amp;#34; ; font-size: 12px ; background-color: rgb(248 , 249 , 250)&quot;&gt;验证订单发货&lt;/span&gt;" style="edgeLabel;html=1;align=center;verticalAlign=middle;resizable=0;points=[];" parent="h0jIuT4aVY_ETxPQJ-Oq-69" vertex="1" connectable="0">
          <mxGeometry x="-0.4885" y="-1" relative="1" as="geometry">
            <mxPoint x="39.17" y="-1" as="offset" />
          </mxGeometry>
        </mxCell>
        <mxCell id="h0jIuT4aVY_ETxPQJ-Oq-71" value="" style="html=1;verticalAlign=bottom;endArrow=block;labelBackgroundColor=none;fontFamily=Verdana;fontSize=12;edgeStyle=elbowEdgeStyle;elbow=vertical;" parent="h0jIuT4aVY_ETxPQJ-Oq-1" edge="1">
          <mxGeometry x="-0.5088" relative="1" as="geometry">
            <mxPoint x="290" y="430" as="sourcePoint" />
            <Array as="points">
              <mxPoint x="300" y="430" />
            </Array>
            <mxPoint x="450" y="430" as="targetPoint" />
            <mxPoint as="offset" />
          </mxGeometry>
        </mxCell>
        <mxCell id="h0jIuT4aVY_ETxPQJ-Oq-72" value="&lt;span style=&quot;font-family: &amp;#34;verdana&amp;#34; ; font-size: 12px ; background-color: rgb(248 , 249 , 250)&quot;&gt;验证订单发货&lt;/span&gt;" style="edgeLabel;html=1;align=center;verticalAlign=middle;resizable=0;points=[];" parent="h0jIuT4aVY_ETxPQJ-Oq-71" vertex="1" connectable="0">
          <mxGeometry x="-0.4885" y="-1" relative="1" as="geometry">
            <mxPoint x="39.17" y="-1" as="offset" />
          </mxGeometry>
        </mxCell>
        <mxCell id="qhqE-eyrq0CgqnT3jneC-0" value="判断支付状态PURCHASED\UNSPECIFIED_STATE" style="html=1;verticalAlign=bottom;endArrow=block;labelBackgroundColor=none;fontFamily=Verdana;fontSize=12;elbow=vertical;edgeStyle=orthogonalEdgeStyle;curved=1;" edge="1" parent="h0jIuT4aVY_ETxPQJ-Oq-1">
          <mxGeometry x="1" y="140" relative="1" as="geometry">
            <mxPoint x="290" y="250" as="sourcePoint" />
            <mxPoint x="290" y="270" as="targetPoint" />
            <Array as="points">
              <mxPoint x="320" y="250" />
              <mxPoint x="320" y="270" />
            </Array>
            <mxPoint x="-140" y="-140" as="offset" />
          </mxGeometry>
        </mxCell>
        <mxCell id="qhqE-eyrq0CgqnT3jneC-2" value="" style="html=1;verticalAlign=bottom;endArrow=block;labelBackgroundColor=none;fontFamily=Verdana;fontSize=12;edgeStyle=elbowEdgeStyle;elbow=vertical;" edge="1" parent="h0jIuT4aVY_ETxPQJ-Oq-1">
          <mxGeometry x="-0.5088" relative="1" as="geometry">
            <mxPoint x="290" y="430" as="sourcePoint" />
            <Array as="points">
              <mxPoint x="300" y="430" />
            </Array>
            <mxPoint x="450" y="430" as="targetPoint" />
            <mxPoint as="offset" />
          </mxGeometry>
        </mxCell>
        <mxCell id="qhqE-eyrq0CgqnT3jneC-3" value="&lt;span style=&quot;font-family: &amp;#34;verdana&amp;#34; ; font-size: 12px ; background-color: rgb(248 , 249 , 250)&quot;&gt;验证订单发货&lt;/span&gt;" style="edgeLabel;html=1;align=center;verticalAlign=middle;resizable=0;points=[];" vertex="1" connectable="0" parent="qhqE-eyrq0CgqnT3jneC-2">
          <mxGeometry x="-0.4885" y="-1" relative="1" as="geometry">
            <mxPoint x="39.17" y="-1" as="offset" />
          </mxGeometry>
        </mxCell>
        <mxCell id="qhqE-eyrq0CgqnT3jneC-4" value="" style="endArrow=classic;html=1;" edge="1" parent="h0jIuT4aVY_ETxPQJ-Oq-1">
          <mxGeometry width="50" height="50" relative="1" as="geometry">
            <mxPoint x="450.3299999999999" y="330" as="sourcePoint" />
            <mxPoint x="289.99666666666667" y="330" as="targetPoint" />
            <Array as="points" />
          </mxGeometry>
        </mxCell>
        <mxCell id="qhqE-eyrq0CgqnT3jneC-5" value="回传uuid、paid" style="edgeLabel;html=1;align=center;verticalAlign=middle;resizable=0;points=[];" vertex="1" connectable="0" parent="qhqE-eyrq0CgqnT3jneC-4">
          <mxGeometry x="-0.2486" y="-1" relative="1" as="geometry">
            <mxPoint x="-27.5" as="offset" />
          </mxGeometry>
        </mxCell>
        <mxCell id="qhqE-eyrq0CgqnT3jneC-6" value="" style="html=1;verticalAlign=bottom;endArrow=block;labelBackgroundColor=none;fontFamily=Verdana;fontSize=12;edgeStyle=elbowEdgeStyle;elbow=vertical;" edge="1" parent="h0jIuT4aVY_ETxPQJ-Oq-1">
          <mxGeometry x="-0.5088" relative="1" as="geometry">
            <mxPoint x="290" y="300" as="sourcePoint" />
            <Array as="points">
              <mxPoint x="300" y="300" />
            </Array>
            <mxPoint x="450" y="300" as="targetPoint" />
            <mxPoint as="offset" />
          </mxGeometry>
        </mxCell>
        <mxCell id="qhqE-eyrq0CgqnT3jneC-7" value="&lt;font face=&quot;verdana&quot;&gt;本地订单号若空，&lt;br&gt;发起后端请求&lt;/font&gt;" style="edgeLabel;html=1;align=center;verticalAlign=middle;resizable=0;points=[];" vertex="1" connectable="0" parent="qhqE-eyrq0CgqnT3jneC-6">
          <mxGeometry x="-0.4885" y="-1" relative="1" as="geometry">
            <mxPoint x="39.17" y="-11" as="offset" />
          </mxGeometry>
        </mxCell>
      </root>
    </mxGraphModel>
  </diagram>
</mxfile>
